<svg width="92" height="92" viewBox="0 0 92 92" fill="none" xmlns="http://www.w3.org/2000/svg">
<g clip-path="url(#clip0)">
<path d="M46.0004 3.95215C21.6867 3.95215 1.97656 23.6622 1.97656 47.9759C1.97656 59.0388 6.05798 69.1474 12.7961 76.8812L27.0025 87.6998C32.7542 90.4555 39.1969 91.9997 46.0004 91.9997C70.3141 91.9997 90.0242 72.2896 90.0242 47.9759C90.0242 23.6622 70.3141 3.95215 46.0004 3.95215Z" fill="#FFC839"/>
<path d="M48.8515 75.6926L48.7408 75.4903C48.1002 74.3198 48.5336 72.8379 49.7041 72.1973L49.8388 72.1237C48.6127 72.7948 47.0603 72.3407 46.3892 71.1147C45.7181 69.8887 46.1721 68.3364 47.3981 67.6653C46.172 68.3364 44.6198 67.8823 43.9485 66.6561C43.2774 65.43 43.7314 63.8778 44.9575 63.2065C43.7313 63.8776 42.1789 63.4236 41.5078 62.1974C40.8367 60.9714 41.2907 59.4191 42.5169 58.7477L45.828 56.9352L45.3233 56.0133C44.9526 55.336 44.3093 54.85 43.5566 54.6782C40.8047 54.0505 37.9478 55.1603 36.3413 57.4809C34.894 59.63 36.3499 57.0093 32.6814 65.4228C32.4447 65.9841 32.0252 66.4488 31.4908 66.7415L12.7959 76.8814C16.7228 81.3887 21.5519 85.0887 27.0024 87.7001L40.2087 80.5368C40.5707 80.3386 40.9734 80.2261 41.3858 80.208L45.4006 80.0317C45.8129 80.0136 46.2156 79.9011 46.5777 79.7029L51.8853 76.7973L51.7146 76.8392C50.6327 77.1822 49.4159 76.7235 48.8515 75.6926Z" fill="#FCAD6D"/>
<path d="M56.6266 74.2564L43.4437 50.1016L34.1797 52.2355L48.6018 78.6604C49.8179 80.8765 52.6002 81.687 54.8163 80.4709C57.0322 79.2548 57.8427 76.4725 56.6266 74.2564Z" fill="#3C58A0"/>
<path d="M42.4965 58.2013C41.4754 56.3303 42.5222 54.0013 44.5992 53.5228L45.2312 53.3773L43.4435 50.1016L34.1797 52.2357L48.6018 78.6606C49.7944 80.8339 52.4933 81.6542 54.6873 80.5378L42.4965 58.2013Z" fill="#2A428C"/>
<path d="M48.5749 75.8438L48.4642 75.6415C47.8235 74.471 48.2571 72.9891 49.4275 72.3483L56.2449 68.6166C57.4154 67.9758 58.8972 68.4094 59.538 69.5799L59.6487 69.7822C60.2895 70.9527 59.8559 72.4346 58.6854 73.0753L51.8681 76.8071C50.6976 77.4479 49.2157 77.0143 48.5749 75.8438Z" fill="#F9BA8F"/>
<path d="M46.1121 71.2662C45.4409 70.04 45.895 68.4877 47.1212 67.8166L55.2946 63.3425C56.5208 62.6714 58.0731 63.1255 58.7443 64.3515C59.4154 65.5775 58.9613 67.1298 57.7353 67.8011L49.5619 72.2752C48.3355 72.9465 46.7832 72.4922 46.1121 71.2662Z" fill="#F9BA8F"/>
<path d="M43.6717 66.8082C43.0005 65.582 43.4546 64.0297 44.6806 63.3586L53.3626 58.6062C54.5887 57.9351 56.1411 58.3892 56.8122 59.6152C57.4833 60.8413 57.0293 62.3937 55.8032 63.0648L47.1213 67.8172C45.8951 68.4883 44.3428 68.0342 43.6717 66.8082Z" fill="#F9BA8F"/>
<path d="M53.3049 55.7403C52.6338 54.5142 51.0815 54.0601 49.8553 54.7312L42.2403 58.8994C41.0141 59.5705 40.56 61.1229 41.2313 62.349C41.9025 63.5752 43.4548 64.0293 44.681 63.358L52.2958 59.1898C53.522 58.5187 53.976 56.9665 53.3049 55.7403Z" fill="#F9BA8F"/>
<path d="M31.7783 66.5568C31.8922 68.1479 32.5716 70.6095 35.606 71.1828C37.6239 71.5641 39.6661 69 39.6661 69C42.2201 65.4318 42.2327 62.7979 42.0595 61.6508C42.0444 61.5514 42.1785 61.5065 42.2268 61.5945L42.8782 62.7844C43.1062 63.2009 43.4045 63.554 43.7496 63.8388C44.5678 64.4347 45.6876 64.545 46.6342 64.027C47.5098 63.5476 48.0134 62.6534 48.0357 61.7223C48.0614 60.6514 47.5804 60.1829 45.3233 56.0133C45.1525 55.7013 44.9011 55.3969 44.5863 55.1585C44.5852 55.1578 44.5843 55.1569 44.5834 55.1561C44.2885 54.9333 43.9385 54.7653 43.5568 54.6782C40.8049 54.0505 37.9481 55.1603 36.3415 57.4809C34.8943 59.63 36.3501 57.0093 32.6816 65.4228C32.4892 65.8788 32.1749 66.2689 31.7783 66.5568Z" fill="#FCAD6D"/>
<path d="M44.8591 60.4705L46.0203 62.5917C46.3261 63.1503 47.0003 63.3848 47.5796 63.162C47.8649 62.7351 48.0236 62.2345 48.0358 61.7223C48.0586 60.7711 47.6615 60.3292 46.488 58.1406L45.3601 58.758C44.7513 59.0912 44.526 59.8619 44.8591 60.4705Z" fill="#F9DFCD"/>
<path d="M36.6016 70.2534C36.4311 69.9388 36.4924 69.5372 36.7713 69.289C41.4041 65.167 40.7181 60.5855 40.7107 60.5397C40.6405 60.1099 40.9323 59.7047 41.3621 59.6344C41.7921 59.5643 42.1975 59.856 42.2672 60.2858C42.3033 60.5077 43.0932 65.7751 37.8197 70.4672C37.4943 70.7567 36.9959 70.7276 36.7064 70.4024C36.6649 70.3558 36.63 70.3059 36.6016 70.2534Z" fill="#FD995B"/>
<path d="M29.8088 51.5142L24.6217 28.9958C24.5872 28.8456 24.5716 28.6957 24.5707 28.5479C18.448 30.282 14.7001 36.5355 16.1443 42.8052C17.5884 49.0748 23.6947 53.0587 29.9588 51.9394C29.895 51.8061 29.8435 51.6645 29.8088 51.5142Z" fill="#E9EFFF"/>
<path d="M17.4072 46.0504C19.868 50.3809 24.8612 52.8501 29.9591 51.9395C29.8951 51.8062 29.8436 51.6646 29.8089 51.5144L28.2327 44.6717C28.0949 44.6001 27.9525 44.5168 27.8059 44.4199C27.8063 44.4199 23.2907 49.1881 17.4072 46.0504Z" fill="#D3DCFB"/>
<path d="M58.7656 13.4453C54.0461 18.975 47.8548 23.0225 40.9385 25.1388C40.9471 25.1699 40.9575 25.2001 40.9649 25.2319L46.1519 47.7504C46.1593 47.7822 46.1631 47.8138 46.169 47.8456C53.3143 46.7229 60.6522 47.6539 67.3153 50.5617L78.4739 55.4313C77.8179 52.5829 67.3256 7.03298 66.6694 4.18457L58.7656 13.4453Z" fill="#E9EFFF"/>
<path d="M62.13 9.5035L67.7332 32.1517C68.6467 35.8443 65.6936 39.373 61.9002 39.0887C57.4175 38.7527 51.3994 38.8743 44.8732 40.597C44.8732 40.597 44.7936 40.7961 44.6074 41.0444L46.1522 47.7504C46.1596 47.7822 46.1635 47.8138 46.1693 47.8456C53.3145 46.7229 60.6524 47.6539 67.3156 50.5617L78.4742 55.4313C77.8182 52.5829 67.3259 7.03298 66.6696 4.18457L62.13 9.5035Z" fill="#D3DCFB"/>
<path d="M84.0879 23.4013C78.7305 23.698 75.209 21.2402 75.209 21.2402C75.6304 23.0698 78.2669 34.5157 78.6911 36.3573C78.6911 36.3573 80.7825 32.6067 85.7299 30.5297C86.5246 30.196 86.9724 29.3477 86.7789 28.5077L85.9158 24.7608C85.7223 23.9208 84.9486 23.3537 84.0879 23.4013Z" fill="#E9EFFF"/>
<path d="M86.2713 26.3044C85.3405 26.6806 84.5164 27.0781 83.8022 27.4691C81.8935 28.5136 79.5166 27.4466 79.0282 25.3263C78.8133 24.3936 78.6009 23.4714 78.4231 22.6993C76.3904 22.0632 75.209 21.2402 75.209 21.2402C75.6304 23.0698 78.2669 34.5157 78.6911 36.3573C78.6911 36.3573 80.7825 32.6067 85.7299 30.5297C86.5248 30.196 86.9724 29.3477 86.7789 28.5077L86.2713 26.3044Z" fill="#D3DCFB"/>
<path d="M81.4957 58.5452C80.1901 58.846 78.8881 58.0314 78.5873 56.7258L66.205 2.97089C65.9042 1.66528 66.7188 0.363264 68.0244 0.0624672C69.33 -0.23833 70.632 0.576194 70.9328 1.8818L83.3151 55.6368C83.6159 56.9424 82.8013 58.2444 81.4957 58.5452Z" fill="#FF4155"/>
<path d="M83.3166 55.6374L78.4265 34.4082C78.2359 35.4021 77.4801 36.2398 76.4306 36.4816C75.3541 36.7296 74.2808 36.2786 73.6826 35.427L78.5888 56.7263C78.8896 58.0319 80.1916 58.8464 81.4972 58.5456C82.8028 58.245 83.6174 56.9428 83.3166 55.6374Z" fill="#E80054"/>
<path d="M38.867 23.619L25.8041 26.628C24.705 26.8812 24.0191 27.9775 24.2723 29.0766L29.4593 51.595C29.7125 52.6942 30.8088 53.3799 31.9079 53.1267L44.9708 50.1177C46.07 49.8645 46.7559 48.7682 46.5025 47.669L41.3155 25.1506C41.0625 24.0517 39.9662 23.3658 38.867 23.619Z" fill="#FF4155"/>
<path d="M41.5653 41.8135L31.3373 44.1696C31.3373 44.1696 30.1174 45.9465 27.8066 44.4203L29.4594 51.5954C29.7126 52.6945 30.8089 53.3802 31.908 53.127L44.9709 50.118C46.0701 49.8648 46.7558 48.7685 46.5026 47.6694L44.8733 40.5967C44.8733 40.5967 44.066 42.6203 41.5653 41.8135Z" fill="#E80054"/>
<path d="M32.3936 26.7283C31.78 26.7283 31.2253 26.3063 31.0815 25.6829L30.189 21.808C30.0219 21.0827 30.4745 20.3591 31.1997 20.1922C31.9248 20.0242 32.6486 20.4777 32.8155 21.2029L33.708 25.0779C33.8751 25.8031 33.4225 26.5267 32.6973 26.6937C32.5956 26.717 32.4937 26.7283 32.3936 26.7283Z" fill="#BEC8F7"/>
<path d="M29.5392 23.0256C28.9255 23.0256 28.3708 22.6035 28.2271 21.9802C28.06 21.2549 28.5126 20.5313 29.2378 20.3644L33.0386 19.489C33.764 19.3213 34.4872 19.7743 34.6543 20.4997C34.8214 21.2249 34.3688 21.9485 33.6436 22.1155L29.8428 22.9909C29.7411 23.0144 29.6394 23.0256 29.5392 23.0256Z" fill="#E9EFFF"/>
<path d="M28.145 30.3146C27.9779 29.5894 28.4306 28.8658 29.1558 28.6989L36.7573 26.948C37.4825 26.7802 38.2059 27.2335 38.373 27.9588C38.5401 28.684 38.0875 29.4076 37.3623 29.5745L29.7608 31.3254C29.0372 31.4925 28.3123 31.0411 28.145 30.3146Z" fill="#CC0053"/>
<path d="M29.2095 34.9326C29.0424 34.2074 29.495 33.4838 30.2202 33.3168L37.8217 31.5659C38.547 31.3988 39.2704 31.8515 39.4375 32.5767C39.6046 33.3019 39.152 34.0255 38.4268 34.1925L30.8253 35.9433C30.1018 36.1104 29.3768 35.6591 29.2095 34.9326Z" fill="#CC0053"/>
<path d="M30.273 39.5509C30.1059 38.8257 30.5583 38.1021 31.2837 37.9352L38.8852 36.1841C39.6106 36.017 40.3339 36.4696 40.501 37.1949C40.6681 37.9201 40.2156 38.6437 39.4902 38.8106L31.8887 40.5617C31.1653 40.7288 30.4405 40.2774 30.273 39.5509Z" fill="#CC0053"/>
<path d="M31.3374 44.1702C31.1703 43.4449 31.6228 42.7213 32.3482 42.5544L39.9497 40.8034C40.6751 40.6359 41.3985 41.0889 41.5654 41.8141C41.7325 42.5393 41.2801 43.2629 40.5547 43.4299L32.9532 45.1809C32.2298 45.348 31.5047 44.8968 31.3374 44.1702Z" fill="#CC0053"/>
<path d="M32.4009 48.7883C32.2338 48.0631 32.6864 47.3395 33.4117 47.1725L41.0132 45.4216C41.738 45.2538 42.462 45.707 42.6289 46.4324C42.796 47.1576 42.3434 47.8812 41.6182 48.0482L34.0167 49.799C33.2932 49.9661 32.5682 49.515 32.4009 48.7883Z" fill="#CC0053"/>
<path d="M40.2087 80.537C27.9689 79.1576 31.7786 66.5572 31.7786 66.5566C31.6866 66.6235 31.5914 66.6866 31.4908 66.7417L12.7959 76.8817C16.7228 81.3889 21.5519 85.0889 27.0025 87.7003L40.2087 80.537Z" fill="#FD995B"/>
</g>
<defs>
<clipPath id="clip0">
<rect width="92" height="92" fill="white"/>
</clipPath>
</defs>
</svg>
